<svg id="svg" version="1.1" xmlns="http://www.w3.org/2000/svg" xmlns:xlink="http://www.w3.org/1999/xlink" width="400" height="83.43475321162948" viewBox="0, 0, 400,83.43475321162948"><g id="svgg"><path id="path0" d="M0.000 0.334 C 0.000 0.518,0.188 1.057,0.417 1.532 C 0.646 2.007,0.833 2.464,0.833 2.548 C 0.833 2.631,0.942 2.936,1.076 3.225 C 1.209 3.514,1.426 4.050,1.558 4.417 C 1.690 4.783,1.965 5.496,2.168 6.000 C 2.371 6.504,2.673 7.292,2.839 7.750 C 3.005 8.208,3.409 9.218,3.737 9.994 C 4.065 10.769,4.333 11.467,4.333 11.543 C 4.333 11.620,4.483 11.993,4.667 12.373 C 4.850 12.752,5.000 13.128,5.000 13.209 C 5.000 13.289,5.187 13.765,5.417 14.266 C 5.646 14.767,5.833 15.247,5.833 15.334 C 5.833 15.420,5.979 15.812,6.157 16.204 C 6.335 16.596,6.827 17.817,7.250 18.917 C 7.673 20.017,8.161 21.254,8.334 21.667 C 8.507 22.079,8.962 23.242,9.345 24.250 C 9.728 25.258,10.220 26.486,10.438 26.978 C 10.655 27.471,10.833 27.940,10.833 28.022 C 10.833 28.104,10.972 28.488,11.142 28.877 C 11.311 29.265,11.616 30.033,11.818 30.583 C 12.021 31.133,12.370 31.979,12.593 32.462 C 12.817 32.945,13.000 33.415,13.000 33.506 C 13.000 33.596,13.139 33.988,13.308 34.377 C 13.478 34.765,13.783 35.533,13.987 36.083 C 14.190 36.633,14.535 37.496,14.753 38.000 C 14.970 38.504,15.343 39.442,15.582 40.083 C 16.033 41.295,16.327 42.060,16.834 43.333 C 16.998 43.746,17.334 44.608,17.580 45.250 C 18.169 46.784,18.630 47.921,19.018 48.796 C 19.191 49.188,19.333 49.593,19.333 49.696 C 19.333 49.799,19.510 50.266,19.725 50.733 C 19.940 51.201,20.283 52.033,20.487 52.583 C 20.691 53.133,20.995 53.921,21.162 54.333 C 21.329 54.746,21.667 55.608,21.913 56.250 C 22.160 56.892,22.499 57.754,22.668 58.167 C 22.836 58.579,23.017 59.054,23.070 59.222 C 23.215 59.681,23.506 59.485,23.776 58.744 C 23.909 58.381,24.154 57.708,24.322 57.250 C 24.489 56.792,24.817 55.892,25.051 55.250 C 25.284 54.608,25.675 53.558,25.918 52.917 C 26.161 52.275,26.460 51.450,26.582 51.083 C 26.704 50.717,27.006 49.892,27.254 49.250 C 28.073 47.125,28.519 45.921,28.610 45.583 C 28.660 45.400,28.843 44.932,29.017 44.543 C 29.191 44.155,29.333 43.763,29.333 43.672 C 29.333 43.581,29.532 42.999,29.774 42.378 C 30.016 41.758,30.363 40.837,30.544 40.333 C 30.725 39.829,31.004 39.079,31.164 38.667 C 31.324 38.254,31.548 37.654,31.663 37.333 C 31.778 37.012,32.055 36.262,32.280 35.667 C 32.962 33.854,33.343 32.789,33.612 31.942 C 33.912 30.997,34.064 31.068,34.506 32.359 C 34.673 32.849,35.010 33.775,35.254 34.417 C 35.497 35.058,35.755 35.771,35.826 36.000 C 35.898 36.229,36.108 36.754,36.294 37.167 C 36.481 37.579,36.674 38.067,36.723 38.250 C 36.773 38.433,36.999 39.071,37.226 39.667 C 37.452 40.262,37.838 41.275,38.082 41.917 C 38.326 42.558,38.636 43.383,38.771 43.750 C 38.905 44.117,39.124 44.653,39.257 44.942 C 39.391 45.231,39.500 45.550,39.500 45.652 C 39.500 45.754,39.639 46.155,39.808 46.543 C 39.978 46.932,40.268 47.663,40.453 48.167 C 40.637 48.671,40.994 49.646,41.245 50.333 C 41.497 51.021,41.835 51.921,41.998 52.333 C 42.160 52.746,42.459 53.533,42.661 54.083 C 42.864 54.633,43.210 55.505,43.431 56.021 C 43.652 56.536,43.833 57.044,43.833 57.148 C 43.833 57.252,43.978 57.655,44.155 58.043 C 44.332 58.432,44.502 58.899,44.532 59.081 C 44.604 59.514,45.166 59.637,45.168 59.221 C 45.168 59.053,45.278 58.707,45.412 58.450 C 45.546 58.193,45.727 57.743,45.814 57.450 C 45.900 57.157,46.246 56.279,46.583 55.500 C 46.919 54.721,47.261 53.858,47.344 53.583 C 47.427 53.308,47.569 52.933,47.660 52.750 C 47.750 52.567,47.931 52.117,48.061 51.750 C 48.192 51.383,48.465 50.671,48.668 50.167 C 48.871 49.663,49.210 48.800,49.420 48.250 C 49.807 47.236,50.213 46.210,50.854 44.625 C 51.048 44.144,51.335 43.413,51.491 43.000 C 51.646 42.587,51.899 41.960,52.053 41.605 C 52.207 41.250,52.333 40.895,52.333 40.817 C 52.333 40.739,52.480 40.355,52.659 39.963 C 52.837 39.571,53.330 38.350,53.754 37.250 C 54.177 36.150,54.663 34.912,54.833 34.500 C 55.004 34.087,55.490 32.850,55.915 31.750 C 56.339 30.650,56.826 29.412,56.996 29.000 C 57.166 28.587,57.473 27.800,57.678 27.250 C 57.884 26.700,58.186 25.945,58.350 25.572 C 58.513 25.199,58.756 24.599,58.890 24.238 C 59.023 23.878,59.297 23.171,59.498 22.667 C 59.700 22.162,60.037 21.300,60.247 20.750 C 60.457 20.200,60.795 19.337,60.999 18.833 C 61.202 18.329,61.475 17.617,61.605 17.250 C 61.736 16.883,61.913 16.433,62.000 16.250 C 62.087 16.067,62.264 15.617,62.395 15.250 C 62.644 14.550,62.964 13.734,63.801 11.667 C 64.080 10.979,64.506 9.892,64.749 9.250 C 64.992 8.608,65.373 7.661,65.596 7.146 C 65.818 6.630,66.000 6.101,66.000 5.971 C 66.000 5.840,66.063 5.662,66.140 5.575 C 66.217 5.488,66.522 4.779,66.818 4.000 C 67.115 3.221,67.533 2.171,67.749 1.667 C 68.499 -0.092,69.163 0.090,61.799 0.040 L 55.347 -0.004 55.171 0.651 C 55.074 1.011,54.884 1.518,54.748 1.778 C 54.613 2.038,54.502 2.342,54.501 2.454 C 54.500 2.566,54.355 2.979,54.177 3.371 C 54.000 3.763,53.690 4.533,53.488 5.083 C 53.287 5.633,53.058 6.233,52.980 6.417 C 52.466 7.624,51.779 9.351,51.588 9.917 C 51.465 10.283,51.213 10.958,51.030 11.417 C 50.846 11.875,50.536 12.662,50.340 13.167 C 50.144 13.671,49.875 14.320,49.742 14.609 C 49.609 14.897,49.500 15.214,49.500 15.312 C 49.500 15.411,49.354 15.812,49.175 16.204 C 48.996 16.596,48.503 17.817,48.080 18.917 C 47.656 20.017,47.172 21.254,47.002 21.667 C 46.833 22.079,46.531 22.867,46.331 23.417 C 46.131 23.967,45.792 24.829,45.579 25.333 C 45.365 25.837,45.138 26.460,45.075 26.716 C 44.931 27.299,44.848 27.215,44.398 26.033 C 44.200 25.510,43.879 24.690,43.685 24.208 C 43.010 22.530,41.891 19.652,41.562 18.750 C 41.428 18.383,41.209 17.847,41.076 17.558 C 40.942 17.269,40.833 16.953,40.833 16.854 C 40.833 16.756,40.687 16.355,40.508 15.963 C 40.329 15.571,39.984 14.725,39.740 14.083 C 39.496 13.442,39.155 12.602,38.982 12.217 C 38.808 11.833,38.667 11.441,38.667 11.347 C 38.667 11.253,38.520 10.855,38.342 10.463 C 38.163 10.071,37.822 9.225,37.585 8.583 C 37.347 7.942,37.006 7.060,36.826 6.625 C 35.629 3.721,34.477 0.774,34.382 0.368 C 34.247 -0.202,33.961 0.009,33.617 0.929 C 33.449 1.381,33.172 2.125,33.001 2.583 C 32.678 3.451,32.247 4.552,31.648 6.042 C 31.454 6.523,31.124 7.367,30.914 7.917 C 30.540 8.894,30.192 9.775,29.481 11.542 C 29.288 12.023,28.957 12.867,28.747 13.417 C 28.537 13.967,28.200 14.829,27.998 15.333 C 27.797 15.838,27.524 16.550,27.392 16.917 C 27.260 17.283,27.050 17.808,26.926 18.083 C 26.802 18.358,26.501 19.108,26.257 19.750 C 26.013 20.392,25.674 21.254,25.504 21.667 C 25.334 22.079,25.033 22.867,24.834 23.417 C 24.636 23.967,24.295 24.829,24.078 25.333 C 23.860 25.837,23.636 26.419,23.580 26.625 C 23.443 27.126,23.228 27.099,23.094 26.565 C 23.034 26.326,22.841 25.819,22.667 25.440 C 22.492 25.060,22.226 24.412,22.077 24.000 C 21.719 23.015,21.408 22.199,21.154 21.583 C 21.041 21.308,20.819 20.746,20.661 20.333 C 20.503 19.921,20.225 19.208,20.043 18.750 C 19.861 18.292,19.391 17.092,19.000 16.083 C 18.609 15.075,18.140 13.875,17.959 13.417 C 17.777 12.958,17.457 12.133,17.247 11.583 C 17.037 11.033,16.701 10.171,16.500 9.667 C 16.300 9.162,15.961 8.300,15.747 7.750 C 15.533 7.200,15.195 6.337,14.995 5.833 C 14.795 5.329,14.521 4.617,14.386 4.250 C 14.251 3.883,14.046 3.358,13.930 3.083 C 13.259 1.493,12.954 0.708,12.879 0.375 L 12.794 0.000 6.397 0.000 C 0.106 0.000,0.000 0.006,0.000 0.334 M73.167 29.160 L 73.167 58.333 79.083 58.333 L 85.000 58.333 85.000 49.603 L 85.000 40.872 91.042 40.791 C 96.584 40.716,97.187 40.679,98.333 40.350 C 99.021 40.153,99.870 39.917,100.220 39.826 C 101.540 39.482,104.465 37.922,105.917 36.788 C 111.520 32.413,113.995 27.431,113.998 20.523 C 114.001 15.499,113.192 12.789,110.480 8.736 C 110.083 8.142,109.759 7.764,108.348 6.250 C 107.595 5.442,106.212 4.203,105.713 3.889 C 105.458 3.729,105.058 3.444,104.823 3.257 C 103.713 2.373,100.884 1.177,98.250 0.480 L 96.750 0.083 84.958 0.035 L 73.167 -0.013 73.167 29.160 M95.365 12.078 C 101.234 13.442,104.175 20.696,100.694 25.223 C 98.199 28.469,96.658 29.029,89.958 29.123 L 85.000 29.193 85.000 20.513 L 85.000 11.833 89.656 11.833 C 93.159 11.833,94.573 11.894,95.365 12.078 " stroke="none" fill="#ec1c24" fill-rule="evenodd"></path><path id="path1" d="M293.287 65.529 C 291.949 66.017,291.861 68.575,293.159 69.246 C 294.626 70.004,296.333 69.103,296.333 67.570 C 296.333 65.839,294.960 64.918,293.287 65.529 M179.874 74.286 L 179.917 83.083 181.500 83.083 L 183.083 83.083 183.167 80.361 L 183.250 77.639 183.592 78.028 C 184.638 79.217,188.084 82.935,188.237 83.039 C 188.336 83.106,189.260 83.163,190.292 83.164 C 192.393 83.167,192.545 83.062,191.708 82.181 C 191.456 81.916,190.500 80.896,189.583 79.914 C 188.667 78.933,187.559 77.754,187.121 77.296 L 186.326 76.461 186.705 76.099 C 186.913 75.900,187.533 75.217,188.083 74.581 C 189.267 73.213,190.731 71.583,191.299 71.000 L 191.705 70.583 189.570 70.536 L 187.434 70.490 186.870 71.120 C 186.560 71.466,185.904 72.200,185.411 72.750 C 184.919 73.300,184.214 74.083,183.844 74.490 L 183.172 75.231 183.128 70.407 L 183.083 65.583 181.457 65.536 L 179.830 65.488 179.874 74.286 M283.083 65.647 C 279.502 66.600,278.420 70.282,280.880 73.149 C 281.147 73.461,282.052 74.312,282.891 75.042 C 285.805 77.577,286.000 77.799,286.000 78.583 C 286.000 80.740,283.008 80.403,281.720 78.101 C 281.565 77.824,280.056 78.493,279.667 79.011 C 279.621 79.072,279.415 79.174,279.208 79.239 C 278.688 79.401,278.733 79.926,279.346 80.833 C 281.798 84.459,287.404 84.299,289.119 80.553 C 290.242 78.098,289.373 76.073,285.912 73.083 C 283.513 71.011,283.000 70.471,283.003 70.017 C 283.010 68.726,284.711 68.649,285.913 69.887 C 286.798 70.797,286.765 70.803,288.227 69.452 C 289.373 68.394,289.362 68.304,287.960 67.125 C 286.404 65.816,284.556 65.256,283.083 65.647 M299.833 68.167 L 299.833 70.500 299.083 70.500 L 298.333 70.500 298.333 71.917 L 298.333 73.333 299.083 73.333 L 299.833 73.333 299.833 78.163 L 299.833 82.994 300.210 83.088 C 300.418 83.140,301.149 83.160,301.835 83.133 L 303.083 83.083 303.128 78.217 L 303.172 73.350 304.128 73.300 L 305.083 73.250 305.132 71.875 L 305.180 70.500 304.173 70.500 L 303.167 70.500 303.167 68.167 L 303.167 65.833 301.500 65.833 L 299.833 65.833 299.833 68.167 M361.500 68.167 L 361.500 70.500 360.750 70.500 L 360.000 70.500 360.000 71.917 L 360.000 73.333 360.750 73.333 L 361.500 73.333 361.500 78.149 C 361.500 83.692,361.298 83.167,363.430 83.167 L 364.833 83.167 364.833 78.250 L 364.833 73.333 365.833 73.333 L 366.833 73.333 366.833 71.917 L 366.833 70.500 365.833 70.500 L 364.833 70.500 364.833 68.167 L 364.833 65.833 363.167 65.833 L 361.500 65.833 361.500 68.167 M369.500 68.167 L 369.500 70.500 368.660 70.500 L 367.820 70.500 367.868 71.875 L 367.917 73.250 368.706 73.301 L 369.495 73.351 369.539 78.217 L 369.583 83.083 371.167 83.083 L 372.750 83.083 372.794 78.217 L 372.838 73.350 373.794 73.300 L 374.750 73.250 374.798 71.875 L 374.847 70.500 373.840 70.500 L 372.833 70.500 372.833 68.167 L 372.833 65.833 371.167 65.833 L 369.500 65.833 369.500 68.167 M143.035 68.125 C 142.826 69.294,142.502 71.150,142.316 72.250 C 142.130 73.350,141.838 75.000,141.668 75.917 C 141.497 76.833,141.312 77.978,141.256 78.460 C 141.200 78.943,141.112 79.449,141.059 79.585 C 140.975 79.804,132.723 79.833,70.482 79.833 L 0.000 79.833 0.000 81.417 L 0.000 83.000 71.954 82.959 L 143.909 82.917 144.032 82.083 C 144.221 80.801,144.834 77.269,145.185 75.435 C 145.358 74.529,145.502 73.591,145.505 73.352 C 145.512 72.799,145.676 73.078,146.082 74.333 C 146.246 74.837,146.510 75.625,146.670 76.083 C 147.230 77.688,148.356 81.088,148.491 81.583 C 148.888 83.038,148.835 83.000,150.478 83.000 L 151.964 83.000 152.212 82.375 C 152.348 82.031,153.000 80.137,153.661 78.167 C 155.465 72.786,155.667 72.355,155.667 73.885 C 155.666 74.177,155.810 75.204,155.985 76.167 C 156.617 79.631,157.006 81.926,157.044 82.417 L 157.083 82.917 158.792 82.964 C 160.096 83.000,160.500 82.961,160.501 82.797 C 160.502 82.680,160.355 81.796,160.175 80.833 C 159.995 79.871,159.688 78.108,159.494 76.917 C 158.888 73.192,158.543 71.169,158.064 68.542 L 157.602 66.000 155.962 66.000 C 154.790 66.000,154.308 66.059,154.270 66.208 C 154.240 66.323,154.085 66.792,153.924 67.250 C 153.763 67.708,153.569 68.308,153.492 68.583 C 153.018 70.285,150.570 77.137,150.472 77.037 C 150.407 76.971,149.982 75.792,149.529 74.417 C 149.075 73.042,148.628 71.729,148.536 71.500 C 148.443 71.271,148.004 69.940,147.559 68.542 L 146.750 66.001 145.083 66.000 L 143.417 66.000 143.035 68.125 M216.833 66.084 C 216.833 66.194,217.361 67.250,218.789 70.000 C 219.432 71.237,220.343 72.994,220.813 73.903 L 221.667 75.555 221.667 79.274 L 221.667 82.994 222.042 83.088 C 222.249 83.140,223.018 83.160,223.751 83.133 L 225.083 83.083 225.168 79.333 L 225.252 75.583 226.434 73.333 C 228.418 69.555,230.167 66.155,230.167 66.076 C 230.167 66.034,229.351 66.000,228.354 66.000 L 226.542 66.000 225.874 67.292 C 223.148 72.561,223.691 72.300,222.079 69.117 C 221.531 68.036,220.951 66.892,220.790 66.576 L 220.497 66.000 218.665 66.000 C 217.658 66.000,216.833 66.038,216.833 66.084 M331.207 74.542 L 331.250 83.083 334.284 83.062 C 339.802 83.024,341.903 81.627,341.895 78.000 C 341.891 76.385,340.742 74.177,339.901 74.168 C 339.354 74.163,339.181 73.587,339.603 73.180 C 340.748 72.079,340.975 69.709,340.074 68.270 C 339.024 66.595,337.334 66.024,333.373 66.009 L 331.164 66.000 331.207 74.542 M336.395 69.606 C 338.112 70.425,337.216 72.667,335.172 72.667 L 334.667 72.667 334.667 71.000 L 334.667 69.333 335.244 69.333 C 335.562 69.333,336.080 69.456,336.395 69.606 M166.833 70.471 C 165.770 70.867,164.167 72.045,164.167 72.431 C 164.167 72.503,164.026 72.717,163.854 72.906 C 162.462 74.440,162.509 78.503,163.944 80.648 C 165.824 83.459,170.067 84.211,172.292 82.127 L 172.667 81.775 172.667 82.471 L 172.667 83.167 174.070 83.167 C 174.841 83.167,175.591 83.121,175.736 83.066 C 175.970 82.976,176.000 82.261,176.000 76.732 L 176.000 70.500 174.344 70.500 L 172.688 70.500 172.636 71.004 L 172.583 71.507 171.953 71.077 C 170.629 70.174,168.357 69.905,166.833 70.471 M198.243 70.391 C 196.745 70.818,194.646 72.602,194.388 73.667 C 194.333 73.896,194.231 74.158,194.162 74.250 C 193.555 75.058,193.562 77.674,194.175 79.333 C 195.708 83.483,201.954 84.729,205.302 81.552 L 206.250 80.653 205.863 80.358 C 204.959 79.671,203.302 79.089,203.087 79.384 C 201.750 81.212,197.989 80.537,197.232 78.333 L 197.031 77.750 202.015 77.706 L 207.000 77.662 207.000 76.694 C 207.000 72.184,202.732 69.112,198.243 70.391 M236.895 70.482 C 234.297 71.368,232.500 73.929,232.500 76.746 C 232.500 82.615,239.533 85.539,243.735 81.417 C 244.658 80.512,244.915 80.140,245.348 79.083 C 247.439 73.978,242.219 68.666,236.895 70.482 M267.462 70.395 C 267.212 70.506,266.781 70.814,266.504 71.080 L 266.000 71.562 266.000 71.031 L 266.000 70.500 264.583 70.500 L 263.167 70.500 263.167 76.732 C 263.167 83.855,262.979 83.167,264.917 83.167 C 266.834 83.167,266.672 83.571,266.657 78.821 C 266.641 73.432,267.016 72.481,268.858 73.242 C 269.076 73.333,269.192 73.175,269.422 72.470 C 269.581 71.982,269.823 71.364,269.959 71.095 C 270.384 70.255,268.788 69.807,267.462 70.395 M311.155 70.482 C 305.716 72.222,305.270 80.162,310.469 82.705 C 312.920 83.904,316.543 83.377,318.450 81.544 L 319.398 80.633 318.991 80.320 C 318.767 80.148,318.516 80.006,318.433 80.004 C 318.351 80.002,317.884 79.798,317.396 79.551 L 316.508 79.101 316.129 79.448 C 314.178 81.232,310.811 80.473,310.267 78.125 L 310.160 77.667 315.188 77.667 L 320.215 77.667 320.117 76.625 C 319.652 71.683,315.753 69.010,311.155 70.482 M349.041 70.480 C 348.560 70.646,348.029 70.906,347.861 71.058 C 347.694 71.209,347.489 71.333,347.405 71.333 C 347.134 71.333,345.818 72.895,345.369 73.750 C 344.328 75.730,344.708 79.160,346.168 80.977 C 348.504 83.883,353.528 84.178,356.286 81.571 C 357.378 80.538,357.363 80.490,355.705 79.735 C 354.466 79.170,354.439 79.166,354.097 79.473 C 352.196 81.184,349.033 80.554,348.241 78.307 L 348.015 77.667 353.007 77.667 L 358.000 77.667 358.000 76.743 C 358.000 72.069,353.515 68.934,349.041 70.480 M380.980 70.409 C 377.553 71.354,375.613 75.700,376.996 79.333 C 378.579 83.492,384.788 84.728,388.135 81.552 L 389.083 80.653 388.696 80.358 C 387.793 79.671,386.136 79.089,385.920 79.384 C 384.584 81.212,380.823 80.537,380.065 78.333 L 379.864 77.750 384.872 77.706 L 389.881 77.662 389.790 76.373 C 389.474 71.869,385.482 69.167,380.980 70.409 M396.283 70.516 C 395.935 70.700,395.608 70.959,395.557 71.092 C 395.408 71.479,395.167 71.371,395.167 70.917 C 395.167 70.503,395.156 70.500,393.667 70.500 L 392.167 70.500 392.167 76.732 C 392.167 83.855,391.979 83.167,393.917 83.167 C 395.828 83.167,395.667 83.563,395.667 78.875 C 395.667 73.749,396.069 72.585,397.652 73.137 C 398.183 73.322,398.500 73.068,398.500 72.459 C 398.500 72.333,398.650 71.919,398.833 71.539 C 399.017 71.160,399.167 70.742,399.167 70.611 C 399.167 70.077,397.235 70.014,396.283 70.516 M249.041 74.875 C 249.114 79.434,249.224 80.157,250.023 81.298 C 251.842 83.895,256.714 84.051,258.781 81.579 C 259.940 80.194,260.049 79.642,260.127 74.792 L 260.196 70.500 258.431 70.500 L 256.667 70.500 256.666 74.625 C 256.664 79.612,256.469 80.143,254.633 80.161 C 252.682 80.179,252.429 79.552,252.364 74.542 L 252.312 70.500 250.642 70.500 L 248.971 70.500 249.041 74.875 M292.500 76.732 C 292.500 83.855,292.313 83.167,294.250 83.167 C 296.187 83.167,296.000 83.855,296.000 76.732 L 296.000 70.500 294.250 70.500 L 292.500 70.500 292.500 76.732 M201.533 73.196 C 202.167 73.386,203.500 74.495,203.500 74.833 C 203.500 74.939,202.331 75.000,200.319 75.000 L 197.139 75.000 197.665 74.336 C 198.625 73.124,199.969 72.728,201.533 73.196 M314.680 73.221 C 315.386 73.452,315.972 73.908,316.380 74.542 L 316.674 75.000 313.498 75.000 C 309.960 75.000,310.004 75.020,311.163 73.917 C 312.029 73.093,313.437 72.814,314.680 73.221 M352.679 73.257 C 353.614 73.582,354.500 74.389,354.500 74.914 C 354.500 74.961,353.113 75.000,351.417 75.000 C 348.067 75.000,348.083 75.006,348.875 74.110 C 349.780 73.087,351.246 72.758,352.679 73.257 M384.365 73.196 C 384.975 73.379,386.333 74.522,386.333 74.853 C 386.333 74.934,384.902 75.000,383.153 75.000 L 379.972 75.000 380.498 74.336 C 381.458 73.124,382.802 72.728,384.365 73.196 M171.000 73.591 C 173.494 74.854,173.199 79.137,170.558 80.008 C 167.967 80.863,165.829 78.751,166.313 75.814 C 166.654 73.752,169.062 72.609,171.000 73.591 M240.812 73.714 C 242.632 74.809,242.893 77.976,241.277 79.363 C 239.053 81.272,235.833 79.692,235.833 76.692 C 235.833 74.020,238.584 72.375,240.812 73.714 M336.771 75.914 C 339.591 76.751,338.894 79.464,335.792 79.726 L 334.667 79.821 334.667 77.744 L 334.667 75.667 335.303 75.667 C 335.653 75.667,336.314 75.778,336.771 75.914 " stroke="none" fill="#747474" fill-rule="evenodd"></path><path id="path2" d="M140.577 0.208 C 140.533 0.323,140.517 13.429,140.541 29.333 L 140.583 58.250 146.542 58.294 L 152.500 58.338 152.500 46.669 L 152.500 35.000 162.083 35.000 L 171.667 35.000 171.667 46.667 L 171.667 58.333 177.583 58.333 L 183.500 58.333 183.500 29.167 L 183.500 0.000 177.583 0.000 L 171.667 0.000 171.667 11.667 L 171.667 23.333 162.083 23.333 L 152.500 23.333 152.500 11.667 L 152.500 0.000 146.578 0.000 C 141.994 0.000,140.638 0.047,140.577 0.208 M190.500 29.167 L 190.500 58.333 208.167 58.333 L 225.833 58.333 225.833 52.417 L 225.833 46.500 214.083 46.500 L 202.333 46.500 202.333 40.750 L 202.333 35.000 211.167 35.000 L 220.000 35.000 220.000 29.083 L 220.000 23.167 211.167 23.167 L 202.333 23.167 202.333 17.500 L 202.333 11.833 214.083 11.833 L 225.833 11.833 225.833 5.917 L 225.833 0.000 208.167 0.000 L 190.500 0.000 190.500 29.167 M230.667 29.167 L 230.667 58.335 248.292 58.292 L 265.917 58.250 265.917 52.333 L 265.917 46.417 254.208 46.374 L 242.500 46.331 242.500 23.166 L 242.500 0.000 236.583 0.000 L 230.667 0.000 230.667 29.167 M270.667 29.160 L 270.667 58.333 276.583 58.333 L 282.500 58.333 282.500 49.603 L 282.500 40.872 288.625 40.787 C 293.389 40.720,294.954 40.645,295.667 40.447 C 296.171 40.308,297.029 40.069,297.573 39.917 C 304.232 38.054,310.042 31.526,311.442 24.333 C 312.438 19.212,311.334 13.635,308.459 9.266 C 305.601 4.926,301.418 1.984,296.037 0.532 L 294.417 0.094 282.542 0.041 L 270.667 -0.013 270.667 29.160 M316.500 29.167 L 316.500 58.333 334.167 58.333 L 351.833 58.333 351.833 52.417 L 351.833 46.500 340.083 46.500 L 328.333 46.500 328.333 40.750 L 328.333 35.000 337.167 35.000 L 346.000 35.000 346.000 29.083 L 346.000 23.167 337.167 23.167 L 328.333 23.167 328.333 17.500 L 328.333 11.833 340.083 11.833 L 351.833 11.833 351.833 5.917 L 351.833 0.000 334.167 0.000 L 316.500 0.000 316.500 29.167 M356.667 29.167 L 356.667 58.333 362.583 58.333 L 368.500 58.333 368.500 45.633 L 368.500 32.933 369.250 33.964 C 369.662 34.531,370.000 35.030,370.000 35.072 C 370.000 35.115,370.214 35.472,370.475 35.867 C 370.737 36.261,371.312 37.146,371.754 37.833 C 372.196 38.521,372.620 39.108,372.696 39.139 C 372.771 39.169,372.833 39.266,372.833 39.354 C 372.833 39.442,372.973 39.717,373.145 39.965 C 373.475 40.445,374.450 41.944,376.635 45.333 C 377.374 46.479,378.043 47.492,378.122 47.583 C 378.202 47.675,378.445 48.069,378.664 48.458 C 378.883 48.848,379.123 49.167,379.197 49.167 C 379.272 49.167,379.333 49.245,379.333 49.340 C 379.333 49.435,379.476 49.717,379.651 49.965 C 379.985 50.439,382.186 53.838,383.591 56.050 C 384.045 56.765,384.548 57.508,384.708 57.701 C 384.869 57.893,385.000 58.115,385.000 58.192 C 385.000 58.270,388.262 58.333,392.250 58.333 C 400.219 58.333,399.862 58.386,399.093 57.316 C 398.869 57.005,398.560 56.506,398.407 56.208 C 398.254 55.910,398.062 55.667,397.981 55.667 C 397.900 55.667,397.833 55.593,397.833 55.503 C 397.833 55.413,397.552 54.916,397.208 54.397 C 396.865 53.879,396.508 53.336,396.417 53.190 C 396.325 53.044,395.969 52.487,395.625 51.951 C 395.281 51.415,395.000 50.946,395.000 50.909 C 395.000 50.872,394.512 50.123,393.917 49.244 C 393.321 48.365,392.833 47.614,392.833 47.575 C 392.833 47.535,392.496 47.010,392.083 46.408 C 391.671 45.805,391.333 45.285,391.333 45.251 C 391.333 45.218,390.898 44.529,390.365 43.720 C 389.833 42.912,389.085 41.762,388.703 41.167 C 388.321 40.571,387.599 39.450,387.098 38.675 C 386.210 37.301,386.117 37.000,386.579 37.000 C 387.503 37.000,390.731 34.731,392.008 33.184 C 393.436 31.453,395.667 27.541,395.667 26.767 C 395.667 26.643,395.779 26.272,395.916 25.944 C 396.873 23.652,396.873 16.249,395.916 13.289 C 395.621 12.375,394.370 9.744,394.083 9.431 C 393.992 9.332,393.602 8.837,393.218 8.333 C 391.999 6.732,388.693 3.667,388.186 3.667 C 388.106 3.667,387.944 3.550,387.825 3.407 C 387.706 3.264,387.341 3.015,387.013 2.855 C 386.685 2.694,386.267 2.485,386.083 2.389 C 384.779 1.710,383.037 1.078,381.500 0.726 C 378.400 0.018,378.279 0.012,367.292 0.006 L 356.667 0.000 356.667 29.167 M292.764 12.017 C 297.785 12.955,301.352 19.169,299.267 23.348 C 299.120 23.643,299.000 23.950,299.000 24.029 C 299.000 24.686,296.505 27.370,295.321 27.987 C 293.406 28.985,292.974 29.048,287.542 29.123 L 282.500 29.192 282.500 20.513 L 282.500 11.833 287.139 11.833 C 289.818 11.833,292.194 11.911,292.764 12.017 M377.333 12.079 C 383.635 13.143,386.377 19.047,382.948 24.167 C 381.001 27.074,379.308 27.667,372.948 27.667 L 368.500 27.667 368.500 19.750 L 368.500 11.833 372.208 11.836 C 374.650 11.838,376.401 11.921,377.333 12.079 " stroke="none" fill="#1c1c1c" fill-rule="evenodd"></path><path id="path3" d="M266.039 71.000 C 266.039 71.321,266.073 71.452,266.115 71.292 C 266.157 71.131,266.157 70.869,266.115 70.708 C 266.073 70.548,266.039 70.679,266.039 71.000 " stroke="none" fill="#242424" fill-rule="evenodd"></path><path id="path4" d="" stroke="none" fill="#f04848" fill-rule="evenodd"></path></g></svg>