<?xml version="1.0" encoding="utf-8"?>
<!-- Generator: Adobe Illustrator 22.1.0, SVG Export Plug-In . SVG Version: 6.00 Build 0)  -->
<svg version="1.1" id="Layer_1" xmlns="http://www.w3.org/2000/svg" xmlns:xlink="http://www.w3.org/1999/xlink" x="0px" y="0px"
	 width="500px" height="500px" viewBox="0 0 500 500" style="enable-background:new 0 0 500 500;" xml:space="preserve">
<style type="text/css">
	.st0{fill:#EC1C24;}
	.st1{fill:#FFFFFF;}
	.st2{fill:#F26F21;}
</style>
<rect x="-0.5" class="st0" width="501.1" height="501.1"/>
<g>
	<path class="st1" d="M64.1,360.7c-1.3-9.4,8.6-20.5,21.2-21.8c8.4-0.8,16.9-2,25.2-3.3c7.4-1.1,14.1-0.5,19.7,5.1
		c0.8,0.8,3.4,0.8,4.8,0.3c8.8-3.2,17.4-7.1,26.3-10c17.3-5.6,35.2-5,52.7-1.6c21.2,4.2,42.4,3.2,63.7,1.9
		c13.6-0.9,27.1-1.9,40.7-2.5c11.9-0.6,19.6,5.5,21,15.7c1.6,11.9-4.7,21-16.5,23.1c-26.7,4.8-53.5,9.4-80.3,14.1
		c-1.1,0.2-2.2,0.3-3.2,0.6c-2.8,0.9-4.4,2.7-4,5.7c0.5,3.2,2.7,4.2,5.6,3.9c8.8-0.9,17.6-1.5,26.3-2.9c20.6-3.3,41.1-6.8,61.6-10.5
		c12.6-2.2,23.4-8.3,33.6-15.6c19.3-13.8,38.6-27.5,58-41.1c3-2.1,6.3-3.8,9.7-5.1c5.8-2.1,11.6-2.1,16.4,2.4
		c5.1,4.7,6.1,10.6,4.6,17c-1.3,5.6-4.7,10.1-9.4,13.5c-35.3,25.7-70.6,51.5-106,77.2c-11.6,8.4-25.1,12.2-39.5,12.6
		c-35.4,0.9-70.8,1.5-106.2,2.2c-13.1,0.3-26.3,0.5-39.4,1c-2.4,0.1-5.7,0.9-7,2.5c-6.2,7.6-14.6,10.2-23.9,11.2
		c-7.7,0.9-15.3,2-23,2.8c-11.4,1.1-20.4-6.5-22-18.5c-3.2-23.1-6.2-46.3-9.3-69.4C65.3,367.8,64.7,364.2,64.1,360.7z"/>
	<path class="st1" d="M356.9,347.6c-0.6-4-1-6.9-1.4-9.8c-0.4-3.4,1-6.2,4-8c13.8-8.1,27.6-16.3,41.6-24.2c4.7-2.6,9.7-2.4,15.1,1
		C396.5,320.2,377.1,333.6,356.9,347.6z"/>
	<path class="st1" d="M386.2,299.9c-6.8,3.7-13.1,7.3-19.5,10.8c-5.1,2.8-10.4,5.3-15.2,8.5c-3.7,2.4-6.6,2.4-9.6-0.7
		c-1-1.1-2.3-1.9-3.9-3.3c2.9-1.6,5.3-3.2,7.9-4.4c8.4-4.1,16.8-8.2,25.2-12.2C376.1,296.1,381,296.1,386.2,299.9z"/>
</g>
<g>
	<path class="st1" d="M170.7,250.4c-4.5,2.3-9.1,4.7-13.8,6.9c-6.9,3.2-10.9,2-14.2-4.6c-3.3-6.5-6.4-13.2-9.2-19.9
		c-2.4-5.7-1-9.7,4.5-12.8c2.8-1.6,5.8-3,8.8-4.2c5.1-2.1,7.1-5.7,6.6-11.1c-0.9-10-1-20.1-2.1-30c-0.3-2.3-2.8-5.2-5.1-6.4
		c-3.6-2-8-2.7-11.9-4.3c-6.1-2.4-8-6-6.1-12c2.3-7.5,4.9-15,7.7-22.3c2.1-5.6,5.5-6.9,11.5-5.3c0.6,0.1,1.1,0.3,1.7,0.5
		c4.9,1.4,10.4,4.8,14.6,3.7c4-1,6.7-6.8,9.9-10.5c4.4-5.2,8.6-10.7,13.4-15.5c3.3-3.4,3.1-6.2,1-9.9c-2-3.4-3.5-7.1-4.9-10.7
		c-2.3-5.9-1-9.7,4.7-12.8c6.4-3.5,13-6.6,19.6-9.7c5-2.3,9-1.2,11.8,3.5c0.8,1.3,1.8,2.6,2.1,4c2.4,11,9.8,13.4,20.3,12
		c7-1,14.3-0.3,21.4-1.2c2.3-0.3,5.1-2.5,6.1-4.5c2.2-4.3,3.1-9.2,4.9-13.8c2.4-6,5.5-7.5,11.7-5.5c6.8,2.2,13.5,4.6,20.1,7.2
		c5.8,2.3,7.5,5.8,6.3,11.6c-0.1,0.7-0.3,1.5-0.7,2.1c-6.7,11.5-2.6,20,7.6,27.3c4.8,3.4,8.8,7.9,12.9,12.1
		c3.2,3.3,6.6,3.5,10.4,1.4c3.2-1.7,6.4-3.5,9.7-5c5.4-2.5,9.6-1.5,12.2,3.6c3.8,7.3,7.3,14.8,10.4,22.5c2,4.9,0.3,9.2-4.6,11.9
		c-0.8,0.5-1.6,1.1-2.5,1.4c-11,3.3-14.2,10.4-12.3,21c1.5,8.1,1.4,16.4,2.4,24.5c0.2,1.7,2.1,3.7,3.8,4.5c4.1,1.9,8.7,3.1,12.9,4.9
		c5,2,7.2,5.7,5.5,10.8c-2.5,7.8-5,15.7-7.9,23.4c-1.8,5-5.8,6.8-11.1,5.1c-4.2-1.3-8.3-3.1-12.6-4c-1.8-0.4-4.6,0.3-5.7,1.5
		c-7.5,7.8-14.5,16-21.9,23.9c-2.6,2.7-3,5.4-1.3,8.6c2,4,4.1,8.1,5.7,12.2c2.4,6,1.2,9.7-4.5,12.7c-6.6,3.5-13.3,6.7-20.1,10
		c-4.9,2.4-8.7,1-11.2-3.4c-2.4-4.2-4.2-8.8-6.9-12.9c-1-1.6-3.6-3.2-5.5-3.2c-10.4,0-20.8,0.6-31.3,0.8c-3.9,0.1-6,1.7-7,5.3
		c-1.4,4.8-3,9.6-4.9,14.4c-1.9,4.9-5.6,6.5-10.7,4.7c-7.1-2.5-14.2-4.9-21.1-7.7c-5.7-2.3-7.3-5.9-5.6-11.8c1.1-3.8,2.8-7.4,4-11.1
		c1.4-4.2,1.1-8.1-2.9-11.1c-4.6-3.4-9.1-6.9-13.4-10.6C179.4,258.8,175.4,254.8,170.7,250.4z"/>
	<g>
		<path class="st0" d="M341.7,188.4c0-31.5-23.4-58.9-55.5-63c-33.3-4.3-63.8,18-70.4,50.3l0.8,0.1c5.9-21.3,26.6-35.6,49.1-32.7
			c22.5,2.9,39,21.9,39.3,44c0,0,0.8,11.5-5.8,25.2c-0.3,0.5-0.4,1-0.5,1.5c-13,26.2-41.6,42.7-72.2,38.7
			c-35.6-4.5-61.5-34.7-61.7-69.6l-0.5-0.1c-1.3,45.3,32,85.1,77.9,91c44.6,5.7,85.8-22.6,97.4-64.8l-0.2-0.1
			C340.9,203.3,342.5,195.4,341.7,188.4"/>
		<path class="st2" d="M267.7,95c-42.3-6.4-82.1,18-96.7,56.4l-0.2,0c0,0-0.4,1.1-0.8,2.9c-0.4,1-0.7,2.1-1,3.3l0.2,0
			c-1.7,6.7-3.9,17.4-3.2,25.6l0.3,0.1c1.7,29.4,23.7,54.6,54,59.1c33.2,5,64.2-16.5,71.5-48.7l-0.8-0.1
			c-6.3,21.1-27.3,35-49.8,31.6c-22.5-3.4-38.4-22.8-38.3-44.9l-0.3,0c0-4.3,0.7-10.2,3-17.1h0.1c11-31.4,43.1-51.6,77.2-46.4
			c35.4,5.4,60.7,36.2,60.1,71l0.5,0.1C345.9,142.5,313.5,101.9,267.7,95"/>
	</g>
</g>
</svg>
